<?xml version="1.0" encoding="utf-8"?>
<!-- Generator: Adobe Illustrator 16.2.0, SVG Export Plug-In . SVG Version: 6.00 Build 0)  -->
<!DOCTYPE svg PUBLIC "-//W3C//DTD SVG 1.1//EN" "http://www.w3.org/Graphics/SVG/1.1/DTD/svg11.dtd">
<svg version="1.1" id="Layer_1" xmlns="http://www.w3.org/2000/svg" xmlns:xlink="http://www.w3.org/1999/xlink" x="0px" y="0px"
	 width="120px" height="120px" viewBox="0 0 120 120" enable-background="new 0 0 120 120" xml:space="preserve">
<path fill-rule="evenodd" clip-rule="evenodd" fill="#181616" d="M59.996,1.483C26.867,1.483,0,28.346,0,61.485
	c0,26.506,17.191,48.994,41.035,56.93c3,0.551,4.096-1.303,4.096-2.893c0-1.424-0.053-5.197-0.082-10.203
	c-16.689,3.625-20.211-8.043-20.211-8.043c-2.729-6.932-6.662-8.777-6.662-8.777c-5.447-3.723,0.412-3.648,0.412-3.648
	c6.021,0.426,9.191,6.184,9.191,6.184c5.352,9.17,14.041,6.521,17.461,4.986c0.545-3.877,2.096-6.521,3.809-8.021
	c-13.322-1.514-27.33-6.662-27.33-29.654c0-6.549,2.338-11.906,6.176-16.1c-0.615-1.518-2.676-7.619,0.59-15.877
	c0,0,5.037-1.615,16.498,6.15c4.787-1.33,9.92-2,15.021-2.021c5.096,0.021,10.229,0.691,15.021,2.021
	c11.455-7.766,16.482-6.15,16.482-6.15c3.273,8.258,1.215,14.359,0.598,15.877c3.846,4.193,6.168,9.551,6.168,16.1
	c0,23.051-14.029,28.121-27.396,29.607c2.156,1.852,4.074,5.514,4.074,11.111c0,8.021-0.074,14.492-0.074,16.459
	c0,1.605,1.082,3.473,4.127,2.885C102.824,110.458,120,87.983,120,61.485C120,28.346,93.135,1.483,59.996,1.483z"/>
</svg>
