<?xml version="1.0" encoding="utf-8"?>
<!-- Generator: Adobe Illustrator 16.2.0, SVG Export Plug-In . SVG Version: 6.00 Build 0)  -->
<!DOCTYPE svg PUBLIC "-//W3C//DTD SVG 1.1//EN" "http://www.w3.org/Graphics/SVG/1.1/DTD/svg11.dtd">
<svg version="1.1" id="Layer_1" xmlns="http://www.w3.org/2000/svg" xmlns:xlink="http://www.w3.org/1999/xlink" x="0px" y="0px"
	 width="120px" height="120px" viewBox="0 0 120 120" enable-background="new 0 0 120 120" xml:space="preserve">
<g>
	<g>
		<path fill="#007BB5" d="M111.111,0H8.859C3.969,0,0,3.875,0,8.646v102.695C0,116.119,3.969,120,8.859,120h102.252
			c4.895,0,8.889-3.881,8.889-8.658V8.646C120,3.875,116.006,0,111.111,0z"/>
		<path fill="#FFFFFF" d="M17.783,44.992H35.59v57.266H17.783V44.992z M26.688,16.521c5.689,0,10.314,4.625,10.314,10.316
			c0,5.699-4.625,10.324-10.314,10.324c-5.705,0-10.316-4.625-10.316-10.324C16.371,21.146,20.982,16.521,26.688,16.521"/>
		<path fill="#FFFFFF" d="M46.752,44.992h17.076v7.82h0.242c2.377-4.5,8.184-9.25,16.842-9.25c18.012,0,21.338,11.859,21.338,27.283
			v31.412H84.473V74.41c0-6.645-0.131-15.188-9.252-15.188c-9.262,0-10.676,7.236-10.676,14.705v28.33H46.752V44.992z"/>
	</g>
</g>
</svg>
