<?xml version="1.0" encoding="utf-8"?>
<!-- Generator: Adobe Illustrator 16.2.0, SVG Export Plug-In . SVG Version: 6.00 Build 0)  -->
<!DOCTYPE svg PUBLIC "-//W3C//DTD SVG 1.1//EN" "http://www.w3.org/Graphics/SVG/1.1/DTD/svg11.dtd">
<svg version="1.1" id="Layer_1" xmlns="http://www.w3.org/2000/svg" xmlns:xlink="http://www.w3.org/1999/xlink" x="0px" y="0px"
	 width="120px" height="120px" viewBox="0 0 120 120" enable-background="new 0 0 120 120" xml:space="preserve">
<g>
	<linearGradient id="SVGID_1_" gradientUnits="userSpaceOnUse" x1="0" y1="60" x2="90.8718" y2="60">
		<stop  offset="0" style="stop-color:#F5F2E9"/>
		<stop  offset="1" style="stop-color:#E6E2D1"/>
	</linearGradient>
	<path fill="url(#SVGID_1_)" d="M109.275,18.441H10.724C4.823,18.441,0,23.271,0,29.168v61.668c0,5.893,4.823,10.723,10.724,10.723
		h98.551c5.901,0,10.725-4.83,10.725-10.723V29.168C120,23.271,115.176,18.441,109.275,18.441z"/>
	<g>
		<polygon fill="#B8B6B2" points="59.554,76.241 14.88,100.433 14.953,101.559 60.075,77.236 		"/>
	</g>
	<g>
		<path fill="#B8B6B2" d="M110.205,32.834L81.561,50.737L60.075,77.236l43.686,24.322h5.515c3.96,0,7.43-2.18,9.289-5.396
			l-8.358-24.654V32.834z"/>
	</g>
	<path fill="#FF4A3D" d="M60.075,77.236L120,30.841v-1.673c0-5.896-4.824-10.727-10.725-10.727h-2.386L61.505,57.183L14.288,18.441
		h-3.564C4.823,18.441,0,23.271,0,29.168v61.668c0,5.893,4.823,10.723,10.724,10.723h4.229V41.426L60.075,77.236z"/>
	<g>
		<g>
			<path fill="#C02C20" d="M120,90.836V30.841l-16.24,12.573v58.145h5.515C115.176,101.559,120,96.729,120,90.836z"/>
		</g>
	</g>
</g>
</svg>
