<?xml version="1.0" encoding="utf-8"?>
<!-- Generator: Adobe Illustrator 16.2.0, SVG Export Plug-In . SVG Version: 6.00 Build 0)  -->
<!DOCTYPE svg PUBLIC "-//W3C//DTD SVG 1.1//EN" "http://www.w3.org/Graphics/SVG/1.1/DTD/svg11.dtd">
<svg version="1.1" id="Layer_1" xmlns="http://www.w3.org/2000/svg" xmlns:xlink="http://www.w3.org/1999/xlink" x="0px" y="0px"
	 width="120px" height="120px" viewBox="0 0 120 120" enable-background="new 0 0 120 120" xml:space="preserve">
<path fill="#2AA9E0" d="M120,22.785c-4.416,1.957-9.16,3.281-14.141,3.875c5.082-3.047,8.986-7.871,10.824-13.621
	c-4.756,2.82-10.025,4.871-15.633,5.973c-4.49-4.781-10.889-7.773-17.971-7.773c-13.596,0-24.619,11.023-24.619,24.621
	c0,1.93,0.217,3.809,0.637,5.609C38.637,40.441,20.496,30.641,8.354,15.746C6.234,19.383,5.02,23.609,5.02,28.121
	c0,8.543,4.348,16.078,10.953,20.492c-4.035-0.125-7.832-1.234-11.15-3.078C4.82,45.637,4.82,45.742,4.82,45.844
	c0,11.93,8.486,21.879,19.748,24.141c-2.066,0.563-4.24,0.863-6.486,0.863c-1.586,0-3.129-0.152-4.633-0.441
	c3.135,9.781,12.227,16.898,23,17.098c-8.426,6.605-19.043,10.539-30.576,10.539c-1.988,0-3.947-0.117-5.873-0.344
	c10.895,6.984,23.836,11.063,37.738,11.063c45.285,0,70.049-37.516,70.049-70.051c0-1.066-0.025-2.125-0.072-3.184
	C112.525,32.055,116.699,27.719,120,22.785z"/>
</svg>
