<?xml version="1.0" encoding="utf-8"?>
<!-- Generator: Adobe Illustrator 14.0.0, SVG Export Plug-In . SVG Version: 6.00 Build 43363)  -->
<!DOCTYPE svg PUBLIC "-//W3C//DTD SVG 1.1//EN" "http://www.w3.org/Graphics/SVG/1.1/DTD/svg11.dtd">
<svg version="1.1" id="Layer_1" xmlns="http://www.w3.org/2000/svg" xmlns:xlink="http://www.w3.org/1999/xlink" x="0px" y="0px"
	 width="60px" height="60px" viewBox="0 0 60 60" enable-background="new 0 0 60 60" xml:space="preserve">
<path id="logo_5_" fill="#333333" d="M53.327,19.023c-3.615-2.626-7.953-3.539-12.044-2.892l9.513-13.093L46.96,0.251L30.72,22.604
	c-2.09,2.877-3.092,6.211-3.089,9.515h-0.001c0,6.32-5.124,11.444-11.444,11.444c-6.32,0-11.444-5.124-11.444-11.444
	c0-6.321,5.124-11.444,11.444-11.444c3.729,0,7.041,1.785,9.13,4.545c0.598-1.604,1.402-3.107,2.375-4.483
	c-2.934-2.965-7.004-4.803-11.505-4.803c-4.469,0-8.515,1.812-11.444,4.74v-2.369H0v41.444h4.741V43.564
	c2.929,2.929,6.975,4.739,11.444,4.739c8.939,0,16.185-7.246,16.185-16.185h0.001c-0.002-2.336,0.706-4.694,2.185-6.728
	c3.715-5.113,10.872-6.247,15.985-2.532s6.246,10.872,2.531,15.985S42.2,45.091,37.087,41.376c-0.937-0.681-1.739-1.478-2.403-2.356
	c-0.599,1.604-1.401,3.107-2.374,4.482c0.607,0.612,1.27,1.187,1.991,1.71c7.231,5.254,17.353,3.651,22.607-3.581
	C62.162,34.399,60.559,24.278,53.327,19.023z"/>
</svg>
