<?xml version="1.0" encoding="utf-8"?>
<!-- Generator: Adobe Illustrator 16.2.0, SVG Export Plug-In . SVG Version: 6.00 Build 0)  -->
<!DOCTYPE svg PUBLIC "-//W3C//DTD SVG 1.1//EN" "http://www.w3.org/Graphics/SVG/1.1/DTD/svg11.dtd">
<svg version="1.1" id="Layer_1" xmlns="http://www.w3.org/2000/svg" xmlns:xlink="http://www.w3.org/1999/xlink" x="0px" y="0px"
	 width="120px" height="120px" viewBox="0 0 120 120" enable-background="new 0 0 120 120" xml:space="preserve">
<g>
	<path id="Blue_1_" fill="#3B5998" d="M113.379,120c3.656,0,6.621-2.965,6.621-6.623V6.623C120,2.965,117.035,0,113.379,0H6.625
		C2.965,0,0,2.965,0,6.623v106.754C0,117.035,2.965,120,6.625,120H113.379z"/>
	<path id="f" fill="#FFFFFF" d="M82.799,120V73.529h15.6l2.334-18.109H82.799V43.857c0-5.244,1.455-8.816,8.975-8.816l9.59-0.006
		V18.838c-1.658-0.221-7.352-0.713-13.973-0.713c-13.828,0-23.293,8.439-23.293,23.939V55.42H48.459v18.109h15.639V120H82.799z"/>
</g>
</svg>
